<?xml version="1.0" encoding="utf-8"?>
<!-- Generator: Adobe Illustrator 18.0.0, SVG Export Plug-In . SVG Version: 6.00 Build 0)  -->
<!DOCTYPE svg PUBLIC "-//W3C//DTD SVG 1.1//EN" "http://www.w3.org/Graphics/SVG/1.1/DTD/svg11.dtd">
<svg version="1.1" id="Layer_1" xmlns="http://www.w3.org/2000/svg" xmlns:xlink="http://www.w3.org/1999/xlink" x="0px" y="0px"
	 viewBox="0 0 279 425.3" enable-background="new 0 0 279 425.3" xml:space="preserve">
<path fill="#FFFFFF" stroke="#666666" stroke-width="2" stroke-miterlimit="10" d="M265.5,425.1h-252c-6.6,0-12-5.4-12-12V13.8
	c0-6.6,5.4-12,12-12h252c6.6,0,12,5.4,12,12v399.3C277.5,419.7,272.1,425.1,265.5,425.1z"/>
<g>
	<path fill="#666666" d="M23.7,29.1l2.1,6.4l1,3.7l1-3.7l2.1-6.5h3.6L28.3,43h-3.2L20,29.1H23.7z"/>
	<path fill="#666666" d="M37.7,43.1c-0.5-0.1-0.9-0.3-1.2-0.6s-0.6-0.6-0.8-1s-0.3-0.9-0.3-1.4c0-0.6,0.1-1.1,0.4-1.5s0.6-0.7,1-1
		s0.9-0.4,1.5-0.5s1.1-0.1,1.7-0.1c0.6,0,1.2,0,1.7,0.1s0.9,0.1,1.2,0.2v-0.8c0-0.3,0-0.6-0.1-0.8s-0.1-0.5-0.3-0.6
		s-0.3-0.3-0.6-0.4s-0.6-0.2-1-0.2c-0.6,0-1.1,0.1-1.5,0.3s-0.6,0.6-0.6,1.2h-3c0-0.7,0.1-1.3,0.4-1.8s0.6-0.9,1.1-1.2
		s1-0.6,1.7-0.7S40.2,32,41,32c0.7,0,1.3,0.1,1.9,0.2s1.1,0.4,1.6,0.7s0.8,0.8,1.1,1.3s0.4,1.2,0.4,2v4c0,0.4,0.2,0.6,0.6,0.6
		c0.1,0,0.3,0,0.5,0s0.3-0.1,0.4-0.1v2.1c-0.2,0.1-0.6,0.2-1,0.3s-0.8,0.1-1.3,0.1c-0.7,0-1.2-0.1-1.5-0.4s-0.4-0.7-0.4-1.1v-0.2
		c-0.1,0.2-0.3,0.4-0.6,0.6s-0.5,0.4-0.8,0.6s-0.7,0.3-1.1,0.4s-0.9,0.2-1.5,0.2C38.7,43.2,38.2,43.2,37.7,43.1z M41.8,40.7
		c0.5-0.2,0.8-0.4,1-0.5v-1.1c-0.2,0-0.5-0.1-0.9-0.1s-0.8,0-1.2,0c-0.6,0-1.1,0.1-1.5,0.2s-0.6,0.4-0.6,0.8c0,0.4,0.1,0.6,0.4,0.8
		s0.6,0.2,1.1,0.2C40.7,41,41.3,40.9,41.8,40.7z"/>
	<path fill="#666666" d="M53,40.6v-5.9h-2.5v-2.4h5.4v2.3c0.1-0.3,0.3-0.6,0.5-0.9s0.4-0.6,0.7-0.8s0.6-0.4,1-0.6s0.8-0.2,1.4-0.2
		c0.5,0,1,0.1,1.3,0.2s0.6,0.3,0.8,0.4v3.2c-0.3-0.2-0.6-0.3-1-0.5s-0.8-0.2-1.3-0.2c-0.4,0-0.8,0.1-1.4,0.2s-1.1,0.5-1.6,1.1v4.1
		h4.4V43H50.4v-2.4H53z"/>
	<path fill="#666666" d="M68.5,40.6v-5.9h-3.6v-2.4h6.8v8.3H75V43H64.8v-2.4H68.5z M72,27.3v3.3h-3.8v-3.3H72z"/>
	<path fill="#666666" d="M80.9,43.1c-0.5-0.1-0.9-0.3-1.2-0.6s-0.6-0.6-0.8-1s-0.3-0.9-0.3-1.4c0-0.6,0.1-1.1,0.4-1.5s0.6-0.7,1-1
		s0.9-0.4,1.5-0.5s1.1-0.1,1.7-0.1c0.6,0,1.2,0,1.7,0.1s0.9,0.1,1.2,0.2v-0.8c0-0.3,0-0.6-0.1-0.8s-0.1-0.5-0.3-0.6
		s-0.3-0.3-0.6-0.4s-0.6-0.2-1-0.2c-0.6,0-1.1,0.1-1.5,0.3s-0.6,0.6-0.6,1.2h-3c0-0.7,0.1-1.3,0.4-1.8s0.6-0.9,1.1-1.2
		s1-0.6,1.7-0.7s1.3-0.2,2.1-0.2c0.7,0,1.3,0.1,1.9,0.2s1.1,0.4,1.6,0.7s0.8,0.8,1.1,1.3s0.4,1.2,0.4,2v4c0,0.4,0.2,0.6,0.6,0.6
		c0.1,0,0.3,0,0.5,0s0.3-0.1,0.4-0.1v2.1c-0.2,0.1-0.6,0.2-1,0.3s-0.8,0.1-1.3,0.1c-0.7,0-1.2-0.1-1.5-0.4s-0.4-0.7-0.4-1.1v-0.2
		c-0.1,0.2-0.3,0.4-0.6,0.6s-0.5,0.4-0.8,0.6s-0.7,0.3-1.1,0.4s-0.9,0.2-1.5,0.2C81.9,43.2,81.4,43.2,80.9,43.1z M85,40.7
		c0.5-0.2,0.8-0.4,1-0.5v-1.1c-0.2,0-0.5-0.1-0.9-0.1s-0.8,0-1.2,0c-0.6,0-1.1,0.1-1.5,0.2s-0.6,0.4-0.6,0.8c0,0.4,0.1,0.6,0.4,0.8
		s0.6,0.2,1.1,0.2C84,41,84.5,40.9,85,40.7z"/>
	<path fill="#666666" d="M97.8,42.7c-0.6-0.4-1-0.7-1.3-1.1V43h-2.9V27.3h3.2v6.2c0.1-0.1,0.2-0.2,0.4-0.4s0.4-0.3,0.7-0.5
		s0.6-0.3,0.9-0.4s0.7-0.2,1.2-0.2c0.6,0,1.2,0.1,1.8,0.3s1,0.6,1.4,1s0.7,1,1,1.7s0.4,1.5,0.4,2.5c0,1-0.1,1.9-0.4,2.6
		s-0.6,1.3-1,1.7s-0.9,0.8-1.5,1s-1.1,0.3-1.7,0.3C99.2,43.2,98.4,43.1,97.8,42.7z M100.7,39.8c0.3-0.5,0.5-1.2,0.5-2.2
		c0-0.9-0.2-1.6-0.5-2.1s-0.9-0.8-1.7-0.8c-0.5,0-0.9,0.1-1.3,0.3s-0.6,0.3-0.8,0.5v4.3c0.2,0.2,0.5,0.4,0.8,0.5s0.8,0.3,1.3,0.3
		C99.8,40.6,100.4,40.3,100.7,39.8z"/>
	<path fill="#666666" d="M111.5,40.6V29.7H108v-2.4h6.7v13.3h3.5V43H108v-2.4H111.5z"/>
	<path fill="#666666" d="M125.3,42.9c-0.7-0.2-1.4-0.5-1.9-1s-1-1-1.3-1.7s-0.5-1.6-0.5-2.6c0-1.1,0.2-2,0.5-2.7s0.8-1.3,1.3-1.8
		s1.2-0.8,1.9-0.9s1.4-0.3,2.1-0.3c0.7,0,1.4,0.1,2.1,0.3s1.3,0.5,1.8,0.9s0.9,1,1.3,1.7s0.5,1.6,0.5,2.6v0.6H125
		c0,0.8,0.2,1.4,0.6,1.9s1.1,0.7,2.1,0.7c0.6,0,1.1-0.1,1.5-0.3s0.6-0.5,0.7-0.9h3.3c-0.1,0.7-0.4,1.2-0.8,1.7s-0.8,0.8-1.3,1.1
		s-1.1,0.5-1.7,0.6s-1.2,0.2-1.9,0.2C126.9,43.2,126.1,43.1,125.3,42.9z M129,34.8c-0.5-0.2-1-0.4-1.5-0.4c-0.5,0-1,0.1-1.5,0.4
		s-0.8,0.7-1,1.4h4.9C129.8,35.5,129.5,35.1,129,34.8z"/>
	<path fill="#666666" d="M139.6,43.1c-0.7-0.1-1.3-0.3-1.8-0.6s-0.9-0.7-1.2-1.1s-0.5-1-0.5-1.7h3.3c0.1,0.5,0.3,0.9,0.8,1
		s1.1,0.3,1.8,0.3c0.6,0,1.2-0.1,1.6-0.2s0.7-0.4,0.7-0.8c0-0.2-0.1-0.4-0.3-0.5s-0.4-0.2-0.8-0.3s-0.7-0.2-1.2-0.2
		s-0.9-0.1-1.5-0.2c-0.5-0.1-1-0.2-1.6-0.3s-1-0.3-1.4-0.6s-0.8-0.5-1-0.9s-0.4-0.9-0.4-1.5c0-0.6,0.1-1.1,0.4-1.5s0.7-0.8,1.1-1.1
		s1.1-0.5,1.7-0.6s1.4-0.2,2.2-0.2c0.7,0,1.4,0.1,2,0.2s1.2,0.3,1.6,0.6s0.9,0.6,1.1,1.1s0.5,1,0.5,1.6h-3.3
		c-0.1-0.5-0.3-0.8-0.8-0.9s-0.9-0.2-1.5-0.2c-0.6,0-1,0.1-1.4,0.2s-0.5,0.3-0.5,0.7c0,0.4,0.3,0.7,0.9,0.8s1.5,0.3,2.8,0.4
		c0.5,0.1,1.1,0.2,1.6,0.3s1,0.3,1.4,0.5s0.7,0.6,1,1s0.4,0.9,0.4,1.5c0,0.7-0.2,1.2-0.5,1.7s-0.7,0.8-1.3,1.1s-1.2,0.5-1.9,0.6
		s-1.5,0.2-2.3,0.2C141,43.2,140.3,43.2,139.6,43.1z"/>
</g>
<g>
	<path fill="#666666" d="M1.5,64c-0.4,0-0.8-0.2-1.1-0.4C0.2,63.3,0,62.9,0,62.5c0-0.4,0.2-0.8,0.4-1.1c0.6-0.6,1.6-0.6,2.1,0
		C2.8,61.7,3,62.1,3,62.5c0,0.4-0.2,0.8-0.4,1.1C2.3,63.8,1.9,64,1.5,64z"/>
	<path fill="#666666" d="M264,62.5c0-0.8,0.7-1.5,1.5-1.5l0,0c0.8,0,1.5,0.7,1.5,1.5l0,0c0,0.8-0.7,1.5-1.5,1.5l0,0
		C264.7,64,264,63.3,264,62.5z M252,62.5c0-0.8,0.7-1.5,1.5-1.5l0,0c0.8,0,1.5,0.7,1.5,1.5l0,0c0,0.8-0.7,1.5-1.5,1.5l0,0
		C252.7,64,252,63.3,252,62.5z M240,62.5c0-0.8,0.7-1.5,1.5-1.5l0,0c0.8,0,1.5,0.7,1.5,1.5l0,0c0,0.8-0.7,1.5-1.5,1.5l0,0
		C240.7,64,240,63.3,240,62.5z M228,62.5c0-0.8,0.7-1.5,1.5-1.5l0,0c0.8,0,1.5,0.7,1.5,1.5l0,0c0,0.8-0.7,1.5-1.5,1.5l0,0
		C228.7,64,228,63.3,228,62.5z M216,62.5c0-0.8,0.7-1.5,1.5-1.5l0,0c0.8,0,1.5,0.7,1.5,1.5l0,0c0,0.8-0.7,1.5-1.5,1.5l0,0
		C216.7,64,216,63.3,216,62.5z M204,62.5c0-0.8,0.7-1.5,1.5-1.5l0,0c0.8,0,1.5,0.7,1.5,1.5l0,0c0,0.8-0.7,1.5-1.5,1.5l0,0
		C204.7,64,204,63.3,204,62.5z M192,62.5c0-0.8,0.7-1.5,1.5-1.5l0,0c0.8,0,1.5,0.7,1.5,1.5l0,0c0,0.8-0.7,1.5-1.5,1.5l0,0
		C192.7,64,192,63.3,192,62.5z M180,62.5c0-0.8,0.7-1.5,1.5-1.5l0,0c0.8,0,1.5,0.7,1.5,1.5l0,0c0,0.8-0.7,1.5-1.5,1.5l0,0
		C180.7,64,180,63.3,180,62.5z M168,62.5c0-0.8,0.7-1.5,1.5-1.5l0,0c0.8,0,1.5,0.7,1.5,1.5l0,0c0,0.8-0.7,1.5-1.5,1.5l0,0
		C168.7,64,168,63.3,168,62.5z M156,62.5c0-0.8,0.7-1.5,1.5-1.5l0,0c0.8,0,1.5,0.7,1.5,1.5l0,0c0,0.8-0.7,1.5-1.5,1.5l0,0
		C156.7,64,156,63.3,156,62.5z M144,62.5c0-0.8,0.7-1.5,1.5-1.5l0,0c0.8,0,1.5,0.7,1.5,1.5l0,0c0,0.8-0.7,1.5-1.5,1.5l0,0
		C144.7,64,144,63.3,144,62.5z M132,62.5c0-0.8,0.7-1.5,1.5-1.5l0,0c0.8,0,1.5,0.7,1.5,1.5l0,0c0,0.8-0.7,1.5-1.5,1.5l0,0
		C132.7,64,132,63.3,132,62.5z M120,62.5c0-0.8,0.7-1.5,1.5-1.5l0,0c0.8,0,1.5,0.7,1.5,1.5l0,0c0,0.8-0.7,1.5-1.5,1.5l0,0
		C120.7,64,120,63.3,120,62.5z M108,62.5c0-0.8,0.7-1.5,1.5-1.5l0,0c0.8,0,1.5,0.7,1.5,1.5l0,0c0,0.8-0.7,1.5-1.5,1.5l0,0
		C108.7,64,108,63.3,108,62.5z M96,62.5c0-0.8,0.7-1.5,1.5-1.5l0,0c0.8,0,1.5,0.7,1.5,1.5l0,0c0,0.8-0.7,1.5-1.5,1.5l0,0
		C96.7,64,96,63.3,96,62.5z M84,62.5c0-0.8,0.7-1.5,1.5-1.5l0,0c0.8,0,1.5,0.7,1.5,1.5l0,0c0,0.8-0.7,1.5-1.5,1.5l0,0
		C84.7,64,84,63.3,84,62.5z M72,62.5c0-0.8,0.7-1.5,1.5-1.5l0,0c0.8,0,1.5,0.7,1.5,1.5l0,0c0,0.8-0.7,1.5-1.5,1.5l0,0
		C72.7,64,72,63.3,72,62.5z M60,62.5c0-0.8,0.7-1.5,1.5-1.5l0,0c0.8,0,1.5,0.7,1.5,1.5l0,0c0,0.8-0.7,1.5-1.5,1.5l0,0
		C60.7,64,60,63.3,60,62.5z M48,62.5c0-0.8,0.7-1.5,1.5-1.5l0,0c0.8,0,1.5,0.7,1.5,1.5l0,0c0,0.8-0.7,1.5-1.5,1.5l0,0
		C48.7,64,48,63.3,48,62.5z M36,62.5c0-0.8,0.7-1.5,1.5-1.5l0,0c0.8,0,1.5,0.7,1.5,1.5l0,0c0,0.8-0.7,1.5-1.5,1.5l0,0
		C36.7,64,36,63.3,36,62.5z M24,62.5c0-0.8,0.7-1.5,1.5-1.5l0,0c0.8,0,1.5,0.7,1.5,1.5l0,0c0,0.8-0.7,1.5-1.5,1.5l0,0
		C24.7,64,24,63.3,24,62.5z M12,62.5c0-0.8,0.7-1.5,1.5-1.5l0,0c0.8,0,1.5,0.7,1.5,1.5l0,0c0,0.8-0.7,1.5-1.5,1.5l0,0
		C12.7,64,12,63.3,12,62.5z"/>
	<path fill="#666666" d="M277.5,64c-0.4,0-0.8-0.2-1.1-0.4c-0.3-0.3-0.4-0.7-0.4-1.1c0-0.4,0.2-0.8,0.4-1.1c0.6-0.6,1.6-0.6,2.1,0
		c0.3,0.3,0.4,0.7,0.4,1.1c0,0.4-0.2,0.8-0.4,1.1C278.3,63.8,277.9,64,277.5,64z"/>
</g>
<line fill="none" stroke="#666666" stroke-linecap="round" stroke-linejoin="round" stroke-miterlimit="10" x1="1.5" y1="203.5" x2="277.5" y2="203.5"/>
<g>
	<path fill="#B3B3B3" d="M22.1,134.7c0,2.4,0.6,4.8,3,4.8c1.3,0,2.1-0.7,2.4-1.1v-2.9h-2.8v-1.1h4v5.9h-1v-1.1
		c-0.1,0.1-0.9,1.3-3,1.3c-3.1,0-4-2.9-4-5.8c0-3.7,1.5-5.8,4.2-5.8c1.7,0,3.6,0.8,3.8,3.9h-1.3c-0.2-1.8-1-2.8-2.5-2.8
		C22.8,130,22.1,132.2,22.1,134.7z"/>
	<path fill="#B3B3B3" d="M32,136c0-3.5,2.2-4.5,4.1-4.5c1.8,0,4,1,4,4.5v0.3h-6.9c0.1,2.1,1.1,3.2,3,3.2c1.5,0,2.5-0.7,2.7-2H40
		c-0.3,2.4-2.4,3-4,3C33.9,140.5,32,139.3,32,136z M33.2,135.3h5.6c-0.2-1.9-1.2-2.8-2.8-2.8C34.4,132.5,33.4,133.4,33.2,135.3z"/>
	<path fill="#B3B3B3" d="M45.4,136.9v-4.1h-2.9v-1.1h2.9v-4h1.2v4h4.2v1.1h-4.2v3.9c0,1.9,0.4,2.7,2,2.7c0.7,0,1.4-0.1,2-0.3v1.1
		c-0.5,0.2-1.2,0.3-2,0.3C46.5,140.5,45.4,139.7,45.4,136.9z"/>
	<path fill="#B3B3B3" d="M67.4,136.9v-4.1h-2.9v-1.1h2.9v-4h1.2v4h4.2v1.1h-4.2v3.9c0,1.9,0.4,2.7,2,2.7c0.7,0,1.4-0.1,2-0.3v1.1
		c-0.5,0.2-1.2,0.3-2,0.3C68.5,140.5,67.4,139.7,67.4,136.9z"/>
	<path fill="#B3B3B3" d="M76,136c0-3.5,2.1-4.5,4-4.5c1.9,0,4,1,4,4.5c0,3.5-2.1,4.5-4,4.5C78.1,140.5,76,139.5,76,136z M82.8,136
		c0-2.3-1-3.4-2.8-3.4s-2.8,1.1-2.8,3.4c0,2.3,1,3.4,2.8,3.4S82.8,138.3,82.8,136z"/>
	<path fill="#B3B3B3" d="M98.7,127.7h1.2v8.1l4.8-4.1h1.5l-3.9,3.3l4.1,5.4H105l-3.4-4.7l-1.7,1.4v3.3h-1.2V127.7z"/>
	<path fill="#B3B3B3" d="M109.7,131.7h0.9v1.1c0.5-0.7,1.4-1.3,2.8-1.3c1.4,0,2.9,0.6,2.9,3.5v5.3h-1.2v-5c0-1.8-0.4-2.8-2-2.8
		c-1.2,0-1.9,0.5-2.3,0.9v6.8h-1.2V131.7z"/>
	<path fill="#B3B3B3" d="M120,136c0-3.5,2.1-4.5,4-4.5c1.9,0,4,1,4,4.5c0,3.5-2.1,4.5-4,4.5C122.1,140.5,120,139.5,120,136z
		 M126.8,136c0-2.3-1-3.4-2.8-3.4c-1.8,0-2.8,1.1-2.8,3.4c0,2.3,1,3.4,2.8,3.4C125.8,139.4,126.8,138.3,126.8,136z"/>
	<path fill="#B3B3B3" d="M138.6,131.7h1.2l-1.5,8.6h-1.6l-1.7-5.5l-1.7,5.5h-1.6l-1.5-8.6h1.2l1.2,7.5l1.7-5.7h1.3l1.7,5.7
		L138.6,131.7z"/>
	<path fill="#B3B3B3" d="M20.6,155.7h1.3l3.1,7.5l3-7.5h1.3l-3.7,8.6h-1.3L20.6,155.7z"/>
	<path fill="#B3B3B3" d="M32,162.1c0-2,1.8-2.5,3.3-2.5c0.8,0,1.9,0.1,2.5,0.4v-0.8c0-1.5-0.2-2.6-2.2-2.6c-1.6,0-2.3,0.7-2.3,2
		h-1.2c0-2.5,2.1-3.1,3.6-3.1c2.3,0,3.3,1.2,3.3,3.4v4.2c0,0.3,0.1,0.4,0.5,0.4c0.3,0,0.6,0,1.1-0.1v0.9c-0.3,0.1-0.8,0.3-1.4,0.3
		c-1,0-1.2-0.6-1.2-1.1v-0.2c-0.5,0.6-1.5,1.3-3.1,1.3C33.2,164.5,32,163.8,32,162.1z M37.8,162.5v-1.6c-0.6-0.1-1.6-0.2-2.4-0.2
		c-1.4,0-2.3,0.3-2.3,1.4c0,0.9,0.6,1.4,1.8,1.4C36.2,163.5,37.1,163.1,37.8,162.5z"/>
	<path fill="#B3B3B3" d="M43.4,163.3h2.3v-6.5h-2.3v-1.1h3.2v1.9c0.4-1,1.3-2.1,3-2.1c0.5,0,1,0.1,1.5,0.3v1.2
		c-0.4-0.2-0.9-0.3-1.4-0.3c-1.5,0-2.5,0.9-2.8,1.7v4.9h3.8v1.1h-7.3V163.3z"/>
	<path fill="#B3B3B3" d="M54.4,163.3h3.2v-6.5h-3.2v-1.1h4.4v7.6h2.9v1.1h-7.3V163.3z M57.3,151.7H59v1.6h-1.6V151.7z"/>
	<path fill="#B3B3B3" d="M65,162.1c0-2,1.8-2.5,3.3-2.5c0.8,0,1.9,0.1,2.5,0.4v-0.8c0-1.5-0.2-2.6-2.2-2.6c-1.6,0-2.3,0.7-2.3,2
		h-1.2c0-2.5,2.1-3.1,3.6-3.1c2.3,0,3.3,1.2,3.3,3.4v4.2c0,0.3,0.1,0.4,0.5,0.4c0.3,0,0.6,0,1.1-0.1v0.9c-0.3,0.1-0.8,0.3-1.4,0.3
		c-1,0-1.2-0.6-1.2-1.1v-0.2c-0.5,0.6-1.5,1.3-3.1,1.3C66.2,164.5,65,163.8,65,162.1z M70.8,162.5v-1.6c-0.6-0.1-1.6-0.2-2.4-0.2
		c-1.4,0-2.3,0.3-2.3,1.4c0,0.9,0.6,1.4,1.8,1.4C69.2,163.5,70.1,163.1,70.8,162.5z"/>
	<path fill="#B3B3B3" d="M77.6,163.2v1.1h-0.9v-12.6h1.2v4.9c0.4-0.4,1.2-1.1,2.6-1.1c1.9,0,3.6,1.3,3.6,4.5c0,3.3-1.8,4.5-3.6,4.5
		C79.1,164.5,78.2,163.9,77.6,163.2z M82.8,160c0-2-0.8-3.4-2.6-3.4c-1,0-1.8,0.4-2.3,0.9v5c0.5,0.5,1.3,0.9,2.3,0.9
		C82,163.4,82.8,162,82.8,160z"/>
	<path fill="#B3B3B3" d="M87.4,163.3h3.1v-10.5h-3.1v-1.1h4.2v11.6h3.1v1.1h-7.3V163.3z"/>
	<path fill="#B3B3B3" d="M98,160c0-3.5,2.2-4.5,4.1-4.5c1.8,0,4,1,4,4.5v0.3h-6.9c0.1,2.1,1.1,3.2,3,3.2c1.5,0,2.5-0.7,2.7-2h1.2
		c-0.3,2.4-2.4,3-4,3C99.9,164.5,98,163.3,98,160z M99.2,159.3h5.6c-0.2-1.9-1.2-2.8-2.8-2.8S99.4,157.4,99.2,159.3z"/>
	<path fill="#B3B3B3" d="M109.2,161.6h1.2c0.1,1.1,0.9,1.9,2.9,1.9c1.4,0,2.3-0.4,2.3-1.4c0-1.1-1.2-1.3-3.2-1.8
		c-1.6-0.4-2.9-0.8-2.9-2.4c0-1.7,1.5-2.4,3.5-2.4c2,0,3.6,0.8,3.7,2.7h-1.2c-0.2-1.4-1.5-1.6-2.6-1.6c-1.5,0-2.2,0.4-2.2,1.2
		c0,1.1,1.3,1.2,3.2,1.6c1.7,0.4,2.9,0.9,2.9,2.5c0,1.9-1.6,2.6-3.6,2.6C110.8,164.5,109.3,163.6,109.2,161.6z"/>
</g>
<circle fill="#FFFFFF" stroke="#999999" stroke-width="2" stroke-miterlimit="10" cx="212.3" cy="137.8" r="25.3"/>
<circle fill="#FFFFFF" stroke="#999999" stroke-width="2" stroke-miterlimit="10" cx="237.7" cy="160.6" r="25.3"/>
<g>
	<path fill="#808080" d="M220.4,161.9V161l3.1-3.7h1.2v3.5h1v1.1h-1v1.3h-1.3v-1.3H220.4z M223.3,159.2l-1.4,1.6h1.4V159.2z"/>
	<path fill="#808080" d="M227.3,162.7c-0.4-0.4-0.6-0.8-0.7-1.5h1.4c0,0.1,0,0.2,0.1,0.3s0.1,0.2,0.2,0.3c0.1,0.1,0.2,0.1,0.3,0.2
		s0.3,0.1,0.5,0.1c0.3,0,0.5-0.1,0.7-0.2s0.3-0.3,0.3-0.5c0-0.2-0.1-0.4-0.3-0.5s-0.4-0.2-0.8-0.2h-0.4v-1.1h0.4
		c0.3,0,0.5-0.1,0.7-0.2c0.2-0.1,0.2-0.3,0.2-0.5c0-0.2-0.1-0.4-0.2-0.5s-0.3-0.2-0.6-0.2c-0.3,0-0.5,0.1-0.7,0.2
		c-0.2,0.2-0.3,0.4-0.3,0.7h-1.4c0-0.6,0.3-1.1,0.7-1.5s1-0.5,1.7-0.5c0.3,0,0.7,0,0.9,0.1c0.3,0.1,0.5,0.2,0.7,0.4
		c0.2,0.2,0.3,0.3,0.4,0.5c0.1,0.2,0.1,0.5,0.1,0.7c0,0.2-0.1,0.5-0.2,0.7c-0.1,0.2-0.3,0.4-0.6,0.5c0.3,0.1,0.5,0.3,0.7,0.5
		s0.3,0.5,0.3,0.8c0,0.3-0.1,0.5-0.2,0.7s-0.3,0.4-0.5,0.5c-0.2,0.1-0.5,0.2-0.7,0.3s-0.6,0.1-0.9,0.1
		C228.3,163.3,227.7,163.1,227.3,162.7z"/>
	<path fill="#808080" d="M239.4,158.7v0.6c0-0.1,0.1-0.1,0.1-0.2c0.1-0.1,0.1-0.2,0.2-0.2c0.1-0.1,0.2-0.1,0.3-0.2s0.3-0.1,0.4-0.1
		c0.3,0,0.5,0.1,0.6,0.2s0.2,0.3,0.3,0.4c0,0,0.1-0.1,0.1-0.2c0-0.1,0.1-0.1,0.2-0.2c0.1-0.1,0.2-0.1,0.3-0.2s0.3-0.1,0.4-0.1
		c0.2,0,0.4,0,0.5,0.1s0.2,0.2,0.3,0.3c0.1,0.1,0.1,0.3,0.2,0.5c0,0.2,0,0.4,0,0.6v3.1h-1.2v-2.9c0-0.2,0-0.4-0.1-0.5
		s-0.1-0.2-0.3-0.2c-0.1,0-0.2,0-0.3,0.1s-0.2,0.1-0.2,0.2v3.2h-1.1v-2.9c0-0.2,0-0.4-0.1-0.5c0-0.1-0.1-0.2-0.3-0.2
		c-0.1,0-0.2,0-0.3,0.1c-0.1,0.1-0.2,0.1-0.2,0.2v3.2h-1.2v-4.5H239.4z"/>
	<path fill="#808080" d="M246.4,162.2v-2.5h-1.5v-1h2.9v3.5h1.4v1h-4.2v-1H246.4z M247.9,156.6v1.4h-1.6v-1.4H247.9z"/>
	<path fill="#808080" d="M252.1,158.7v0.6c0.1-0.2,0.3-0.3,0.5-0.5c0.2-0.1,0.5-0.2,0.9-0.2c0.2,0,0.4,0,0.6,0.1
		c0.2,0.1,0.4,0.2,0.5,0.3s0.3,0.3,0.3,0.6c0.1,0.2,0.1,0.5,0.1,0.9v2.8h-1.3v-2.5c0-0.3,0-0.6-0.1-0.7c-0.1-0.1-0.3-0.2-0.6-0.2
		c-0.2,0-0.3,0-0.5,0.1s-0.2,0.1-0.3,0.2v3.1h-1.3v-4.5H252.1z"/>
</g>
<g>
	<path fill="#808080" d="M197.5,141c-1.1-1-1.8-2.3-1.8-4h3.7c0,0.3,0.1,0.6,0.2,0.9c0.1,0.3,0.3,0.5,0.5,0.8
		c0.2,0.2,0.5,0.4,0.9,0.5s0.8,0.2,1.4,0.2c0.8,0,1.5-0.2,1.9-0.5s0.7-0.8,0.7-1.4c0-0.6-0.2-1.1-0.7-1.4c-0.5-0.3-1.2-0.4-2.1-0.4
		h-1v-3h1c0.8,0,1.4-0.1,1.8-0.4c0.4-0.3,0.6-0.7,0.6-1.3c0-0.6-0.2-1-0.6-1.4s-0.9-0.5-1.6-0.5c-0.8,0-1.4,0.2-1.9,0.6
		c-0.5,0.4-0.7,1-0.8,1.8H196c0.1-1.7,0.7-3,1.8-4c1.2-1,2.7-1.5,4.7-1.5c0.9,0,1.8,0.1,2.5,0.3c0.7,0.2,1.3,0.5,1.8,1
		c0.5,0.4,0.9,0.9,1.1,1.5c0.3,0.6,0.4,1.2,0.4,1.9c0,0.7-0.2,1.3-0.5,1.9c-0.4,0.6-0.9,1.1-1.7,1.5c0.8,0.3,1.5,0.8,1.9,1.4
		s0.7,1.4,0.7,2.2c0,0.8-0.2,1.4-0.5,2s-0.8,1-1.4,1.4c-0.6,0.4-1.2,0.7-2,0.9s-1.5,0.3-2.4,0.3C200.3,142.4,198.6,141.9,197.5,141z
		"/>
	<path fill="#B3B3B3" d="M213.9,135l-5,8.4h-1.2l5-8.4H213.9z"/>
	<path fill="#B3B3B3" d="M214.6,141.6c-0.4-0.3-0.6-0.8-0.7-1.3h1.4c0,0.1,0,0.2,0.1,0.3c0,0.1,0.1,0.2,0.2,0.2
		c0.1,0.1,0.2,0.1,0.3,0.2c0.1,0,0.3,0.1,0.5,0.1c0.3,0,0.5-0.1,0.7-0.2s0.3-0.4,0.3-0.6c0-0.3-0.1-0.5-0.3-0.6s-0.4-0.2-0.8-0.2
		c-0.2,0-0.4,0-0.6,0.1c-0.2,0.1-0.4,0.2-0.6,0.4l-0.9-0.3l0.3-3.3h4v1.2h-2.8l-0.1,1.1c0.2-0.1,0.4-0.2,0.6-0.3
		c0.2-0.1,0.4-0.1,0.6-0.1c0.3,0,0.6,0,0.8,0.1c0.2,0.1,0.5,0.2,0.6,0.4c0.2,0.2,0.3,0.4,0.4,0.6c0.1,0.2,0.1,0.5,0.1,0.8
		c0,0.4-0.1,0.7-0.2,0.9s-0.3,0.5-0.5,0.6c-0.2,0.2-0.5,0.3-0.7,0.4s-0.6,0.1-0.9,0.1C215.6,142.1,215,142,214.6,141.6z"/>
</g>
<line fill="none" stroke="#666666" stroke-linecap="round" stroke-linejoin="round" stroke-miterlimit="10" x1="1.5" y1="312.5" x2="277.5" y2="312.5"/>
<g>
	<path fill="#B3B3B3" d="M21.7,242.2h1.3v10.1h5.7v1.1h-7V242.2z"/>
	<path fill="#B3B3B3" d="M32,249c0-3.5,2.2-4.5,4.1-4.5c1.8,0,4,1,4,4.5v0.3h-6.9c0.1,2.1,1.1,3.2,3,3.2c1.5,0,2.5-0.7,2.7-2H40
		c-0.3,2.4-2.4,3-4,3C33.9,253.5,32,252.3,32,249z M33.2,248.3h5.6c-0.2-1.9-1.2-2.8-2.8-2.8C34.4,245.5,33.4,246.4,33.2,248.3z"/>
	<path fill="#B3B3B3" d="M43,251.1c0-2,1.8-2.5,3.3-2.5c0.8,0,1.9,0.1,2.5,0.4v-0.8c0-1.5-0.2-2.6-2.2-2.6c-1.6,0-2.3,0.7-2.3,2
		h-1.2c0-2.5,2.1-3.1,3.6-3.1c2.3,0,3.3,1.2,3.3,3.4v4.2c0,0.3,0.1,0.4,0.5,0.4c0.3,0,0.6,0,1.1-0.1v0.9c-0.3,0.1-0.8,0.3-1.4,0.3
		c-1,0-1.2-0.6-1.2-1.1v-0.2c-0.5,0.6-1.5,1.3-3.1,1.3C44.2,253.5,43,252.8,43,251.1z M48.8,251.5v-1.6c-0.6-0.1-1.6-0.2-2.4-0.2
		c-1.4,0-2.3,0.3-2.3,1.4c0,0.9,0.6,1.4,1.8,1.4C47.2,252.5,48.1,252.1,48.8,251.5z"/>
	<path fill="#B3B3B3" d="M54.4,252.3h2.3v-6.5h-2.3v-1.1h3.2v1.9c0.4-1,1.3-2.1,3-2.1c0.5,0,1,0.1,1.5,0.3v1.2
		c-0.4-0.2-0.9-0.3-1.4-0.3c-1.5,0-2.5,0.9-2.8,1.7v4.9h3.8v1.1h-7.3V252.3z"/>
	<path fill="#B3B3B3" d="M65.7,244.7h0.9v1.1c0.5-0.7,1.4-1.3,2.8-1.3c1.4,0,2.9,0.6,2.9,3.5v5.3h-1.2v-5c0-1.8-0.4-2.8-2-2.8
		c-1.2,0-1.9,0.5-2.3,0.9v6.8h-1.2V244.7z"/>
	<path fill="#B3B3B3" d="M87,251.1c0-2,1.8-2.5,3.3-2.5c0.8,0,1.9,0.1,2.5,0.4v-0.8c0-1.5-0.2-2.6-2.2-2.6c-1.6,0-2.3,0.7-2.3,2
		h-1.2c0-2.5,2.1-3.1,3.6-3.1c2.3,0,3.3,1.2,3.3,3.4v4.2c0,0.3,0.1,0.4,0.5,0.4c0.3,0,0.6,0,1.1-0.1v0.9c-0.3,0.1-0.8,0.3-1.4,0.3
		c-1,0-1.2-0.6-1.2-1.1v-0.2c-0.5,0.6-1.5,1.3-3.1,1.3C88.2,253.5,87,252.8,87,251.1z M92.8,251.5v-1.6c-0.6-0.1-1.6-0.2-2.4-0.2
		c-1.4,0-2.3,0.3-2.3,1.4c0,0.9,0.6,1.4,1.8,1.4C91.2,252.5,92.1,252.1,92.8,251.5z"/>
	<path fill="#B3B3B3" d="M99.6,252.2v1.1h-0.9v-12.6h1.2v4.9c0.4-0.4,1.2-1.1,2.6-1.1c1.9,0,3.6,1.3,3.6,4.5c0,3.3-1.8,4.5-3.6,4.5
		C101.1,253.5,100.2,252.9,99.6,252.2z M104.8,249c0-2-0.8-3.4-2.6-3.4c-1,0-1.8,0.4-2.3,0.9v5c0.5,0.5,1.3,0.9,2.3,0.9
		C104,252.4,104.8,251,104.8,249z"/>
	<path fill="#B3B3B3" d="M109,249c0-3.5,2.1-4.5,4-4.5c1.9,0,4,1,4,4.5c0,3.5-2.1,4.5-4,4.5C111.1,253.5,109,252.5,109,249z
		 M115.8,249c0-2.3-1-3.4-2.8-3.4c-1.8,0-2.8,1.1-2.8,3.4c0,2.3,1,3.4,2.8,3.4C114.8,252.4,115.8,251.3,115.8,249z"/>
	<path fill="#B3B3B3" d="M120.7,250v-5.3h1.2v5c0,1.8,0.4,2.8,2,2.8c1.2,0,1.9-0.5,2.3-0.9v-6.8h1.2v8.6h-0.9v-1.1
		c-0.5,0.7-1.4,1.3-2.8,1.3C122.2,253.5,120.7,252.9,120.7,250z"/>
	<path fill="#B3B3B3" d="M133.4,249.9v-4.1h-2.9v-1.1h2.9v-4h1.2v4h4.2v1.1h-4.2v3.9c0,1.9,0.4,2.7,2,2.7c0.7,0,1.4-0.1,2-0.3v1.1
		c-0.5,0.2-1.2,0.3-2,0.3C134.5,253.5,133.4,252.7,133.4,249.9z"/>
	<path fill="#B3B3B3" d="M21.2,274.6h1.2c0.1,1.1,0.9,1.9,2.9,1.9c1.4,0,2.3-0.4,2.3-1.4c0-1.1-1.2-1.3-3.2-1.8
		c-1.6-0.4-2.9-0.8-2.9-2.4c0-1.7,1.5-2.4,3.5-2.4c2,0,3.6,0.8,3.7,2.7h-1.2c-0.2-1.4-1.5-1.6-2.6-1.6c-1.5,0-2.2,0.4-2.2,1.2
		c0,1.1,1.3,1.2,3.2,1.6c1.7,0.4,2.9,0.9,2.9,2.5c0,1.9-1.6,2.6-3.6,2.6C22.8,277.5,21.3,276.6,21.2,274.6z"/>
	<path fill="#B3B3B3" d="M32,273c0-3.6,2.3-4.5,4.1-4.5c1.5,0,3.5,0.6,3.6,3.1h-1.2c-0.2-1.5-1.1-2-2.4-2c-1.9,0-3,1.1-3,3.4
		c0,2.4,1.1,3.5,3,3.5c1.3,0,2.2-0.5,2.4-2h1.2c-0.2,2.5-2.2,3.1-3.7,3.1C34.2,277.5,32,276.6,32,273z"/>
	<path fill="#B3B3B3" d="M43,273c0-3.5,2.1-4.5,4-4.5c1.9,0,4,1,4,4.5c0,3.5-2.1,4.5-4,4.5C45.1,277.5,43,276.5,43,273z M49.8,273
		c0-2.3-1-3.4-2.8-3.4c-1.8,0-2.8,1.1-2.8,3.4c0,2.3,1,3.4,2.8,3.4C48.8,276.4,49.8,275.3,49.8,273z"/>
	<path fill="#B3B3B3" d="M54.7,268.7h0.9v1.1c0.5-0.6,1.4-1.3,2.8-1.3c1.8,0,3.6,1.2,3.6,4.5c0,3.2-1.7,4.6-3.6,4.6
		c-1.4,0-2.2-0.7-2.6-1.1v4.5h-1.2V268.7z M60.8,273c0-2-0.8-3.4-2.6-3.4c-1,0-1.8,0.4-2.3,0.9v5c0.5,0.5,1.3,0.9,2.3,0.9
		C60,276.4,60.8,275,60.8,273z"/>
	<path fill="#B3B3B3" d="M65,273c0-3.5,2.2-4.5,4.1-4.5c1.8,0,4,1,4,4.5v0.3h-6.9c0.1,2.1,1.1,3.2,3,3.2c1.5,0,2.5-0.7,2.7-2H73
		c-0.3,2.4-2.4,3-4,3C66.9,277.5,65,276.3,65,273z M66.2,272.3h5.6c-0.2-1.9-1.2-2.8-2.8-2.8S66.4,270.4,66.2,272.3z"/>
</g>
<circle fill="#FFFFFF" stroke="#999999" stroke-width="2" stroke-miterlimit="10" cx="212.3" cy="246.8" r="25.3"/>
<circle fill="#FFFFFF" stroke="#999999" stroke-width="2" stroke-miterlimit="10" cx="237.7" cy="269.6" r="25.3"/>
<g>
	<path fill="#808080" d="M221.3,271.7c-0.4-0.4-0.6-0.8-0.7-1.5h1.4c0,0.1,0,0.2,0.1,0.3s0.1,0.2,0.2,0.3c0.1,0.1,0.2,0.1,0.3,0.2
		s0.3,0.1,0.5,0.1c0.3,0,0.5-0.1,0.7-0.2s0.3-0.3,0.3-0.5c0-0.2-0.1-0.4-0.3-0.5s-0.4-0.2-0.8-0.2h-0.4v-1.1h0.4
		c0.3,0,0.5-0.1,0.7-0.2c0.2-0.1,0.2-0.3,0.2-0.5c0-0.2-0.1-0.4-0.2-0.5s-0.3-0.2-0.6-0.2c-0.3,0-0.5,0.1-0.7,0.2
		c-0.2,0.2-0.3,0.4-0.3,0.7h-1.4c0-0.6,0.3-1.1,0.7-1.5s1-0.5,1.7-0.5c0.3,0,0.7,0,0.9,0.1c0.3,0.1,0.5,0.2,0.7,0.4
		c0.2,0.2,0.3,0.3,0.4,0.5c0.1,0.2,0.1,0.5,0.1,0.7c0,0.2-0.1,0.5-0.2,0.7c-0.1,0.2-0.3,0.4-0.6,0.5c0.3,0.1,0.5,0.3,0.7,0.5
		s0.3,0.5,0.3,0.8c0,0.3-0.1,0.5-0.2,0.7s-0.3,0.4-0.5,0.5c-0.2,0.1-0.5,0.2-0.7,0.3s-0.6,0.1-0.9,0.1
		C222.3,272.3,221.7,272.1,221.3,271.7z"/>
	<path fill="#808080" d="M227.3,270.5c0.2-0.3,0.5-0.6,0.9-0.9l0.7-0.5c0.1-0.1,0.2-0.2,0.4-0.2s0.2-0.2,0.3-0.2
		c0.1-0.1,0.2-0.2,0.2-0.3c0.1-0.1,0.1-0.2,0.1-0.3c0-0.2-0.1-0.4-0.2-0.5s-0.3-0.2-0.6-0.2c-0.3,0-0.5,0.1-0.7,0.2
		c-0.2,0.2-0.3,0.4-0.3,0.8h-1.4c0-0.7,0.3-1.2,0.7-1.6s1-0.5,1.7-0.5c0.3,0,0.6,0,0.8,0.1s0.5,0.2,0.7,0.3c0.2,0.1,0.3,0.3,0.5,0.5
		c0.1,0.2,0.2,0.5,0.2,0.7c0,0.2,0,0.4-0.1,0.5s-0.1,0.3-0.2,0.4s-0.2,0.3-0.4,0.4s-0.3,0.3-0.5,0.4l-0.8,0.5
		c-0.2,0.2-0.4,0.3-0.6,0.4s-0.2,0.2-0.2,0.3h2.9v1.1H227v-0.4C227,271.2,227.1,270.8,227.3,270.5z"/>
	<path fill="#808080" d="M239.4,267.7v0.6c0-0.1,0.1-0.1,0.1-0.2c0.1-0.1,0.1-0.2,0.2-0.2c0.1-0.1,0.2-0.1,0.3-0.2s0.3-0.1,0.4-0.1
		c0.3,0,0.5,0.1,0.6,0.2s0.2,0.3,0.3,0.4c0,0,0.1-0.1,0.1-0.2c0-0.1,0.1-0.1,0.2-0.2c0.1-0.1,0.2-0.1,0.3-0.2s0.3-0.1,0.4-0.1
		c0.2,0,0.4,0,0.5,0.1s0.2,0.2,0.3,0.3c0.1,0.1,0.1,0.3,0.2,0.5c0,0.2,0,0.4,0,0.6v3.1h-1.2v-2.9c0-0.2,0-0.4-0.1-0.5
		s-0.1-0.2-0.3-0.2c-0.1,0-0.2,0-0.3,0.1s-0.2,0.1-0.2,0.2v3.2h-1.1v-2.9c0-0.2,0-0.4-0.1-0.5c0-0.1-0.1-0.2-0.3-0.2
		c-0.1,0-0.2,0-0.3,0.1c-0.1,0.1-0.2,0.1-0.2,0.2v3.2h-1.2v-4.5H239.4z"/>
	<path fill="#808080" d="M246.4,271.2v-2.5h-1.5v-1h2.9v3.5h1.4v1h-4.2v-1H246.4z M247.9,265.6v1.4h-1.6v-1.4H247.9z"/>
	<path fill="#808080" d="M252.1,267.7v0.6c0.1-0.2,0.3-0.3,0.5-0.5c0.2-0.1,0.5-0.2,0.9-0.2c0.2,0,0.4,0,0.6,0.1
		c0.2,0.1,0.4,0.2,0.5,0.3s0.3,0.3,0.3,0.6c0.1,0.2,0.1,0.5,0.1,0.9v2.8h-1.3v-2.5c0-0.3,0-0.6-0.1-0.7c-0.1-0.1-0.3-0.2-0.6-0.2
		c-0.2,0-0.3,0-0.5,0.1s-0.2,0.1-0.3,0.2v3.1h-1.3v-4.5H252.1z"/>
</g>
<g>
	<path fill="#808080" d="M197.5,250c-1.1-1-1.8-2.3-1.8-4h3.7c0,0.3,0.1,0.6,0.2,0.9c0.1,0.3,0.3,0.5,0.5,0.8
		c0.2,0.2,0.5,0.4,0.9,0.5s0.8,0.2,1.4,0.2c0.8,0,1.5-0.2,1.9-0.5s0.7-0.8,0.7-1.4c0-0.6-0.2-1.1-0.7-1.4c-0.5-0.3-1.2-0.4-2.1-0.4
		h-1v-3h1c0.8,0,1.4-0.1,1.8-0.4c0.4-0.3,0.6-0.7,0.6-1.3c0-0.6-0.2-1-0.6-1.4s-0.9-0.5-1.6-0.5c-0.8,0-1.4,0.2-1.9,0.6
		c-0.5,0.4-0.7,1-0.8,1.8H196c0.1-1.7,0.7-3,1.8-4c1.2-1,2.7-1.5,4.7-1.5c0.9,0,1.8,0.1,2.5,0.3c0.7,0.2,1.3,0.5,1.8,1
		c0.5,0.4,0.9,0.9,1.1,1.5c0.3,0.6,0.4,1.2,0.4,1.9c0,0.7-0.2,1.3-0.5,1.9c-0.4,0.6-0.9,1.1-1.7,1.5c0.8,0.3,1.5,0.8,1.9,1.4
		s0.7,1.4,0.7,2.2c0,0.8-0.2,1.4-0.5,2s-0.8,1-1.4,1.4c-0.6,0.4-1.2,0.7-2,0.9s-1.5,0.3-2.4,0.3C200.3,251.4,198.6,250.9,197.5,250z
		"/>
	<path fill="#B3B3B3" d="M213.9,244l-5,8.4h-1.2l5-8.4H213.9z"/>
	<path fill="#B3B3B3" d="M214.6,250.6c-0.4-0.3-0.6-0.8-0.7-1.3h1.4c0,0.1,0,0.2,0.1,0.3c0,0.1,0.1,0.2,0.2,0.2
		c0.1,0.1,0.2,0.1,0.3,0.2c0.1,0,0.3,0.1,0.5,0.1c0.3,0,0.5-0.1,0.7-0.2s0.3-0.4,0.3-0.6c0-0.3-0.1-0.5-0.3-0.6s-0.4-0.2-0.8-0.2
		c-0.2,0-0.4,0-0.6,0.1c-0.2,0.1-0.4,0.2-0.6,0.4l-0.9-0.3l0.3-3.3h4v1.2h-2.8l-0.1,1.1c0.2-0.1,0.4-0.2,0.6-0.3
		c0.2-0.1,0.4-0.1,0.6-0.1c0.3,0,0.6,0,0.8,0.1c0.2,0.1,0.5,0.2,0.6,0.4c0.2,0.2,0.3,0.4,0.4,0.6c0.1,0.2,0.1,0.5,0.1,0.8
		c0,0.4-0.1,0.7-0.2,0.9s-0.3,0.5-0.5,0.6c-0.2,0.2-0.5,0.3-0.7,0.4s-0.6,0.1-0.9,0.1C215.6,251.1,215,251,214.6,250.6z"/>
</g>
<g>
	<path fill="#B3B3B3" d="M24.5,360.1l-2.3-6.6l0.1,2.7v7.1H21v-11.2h1.8l1.4,4.1l0.8,2.3l0.8-2.3l1.4-4.1H29v11.2h-1.2v-7.1l0.1-2.7
		l-2.3,6.6H24.5z"/>
	<path fill="#B3B3B3" d="M32,359c0-3.5,2.2-4.5,4.1-4.5c1.8,0,4,1,4,4.5v0.3h-6.9c0.1,2.1,1.1,3.2,3,3.2c1.5,0,2.5-0.7,2.7-2H40
		c-0.3,2.4-2.4,3-4,3C33.9,363.5,32,362.3,32,359z M33.2,358.3h5.6c-0.2-1.9-1.2-2.8-2.8-2.8C34.4,355.5,33.4,356.4,33.2,358.3z"/>
	<path fill="#B3B3B3" d="M43,359c0-3.5,2.2-4.5,4.1-4.5c1.8,0,4,1,4,4.5v0.3h-6.9c0.1,2.1,1.1,3.2,3,3.2c1.5,0,2.5-0.7,2.7-2H51
		c-0.3,2.4-2.4,3-4,3C44.9,363.5,43,362.3,43,359z M44.2,358.3h5.6c-0.2-1.9-1.2-2.8-2.8-2.8C45.4,355.5,44.4,356.4,44.2,358.3z"/>
	<path fill="#B3B3B3" d="M56.4,359.9v-4.1h-2.9v-1.1h2.9v-4h1.2v4h4.2v1.1h-4.2v3.9c0,1.9,0.4,2.7,2,2.7c0.7,0,1.4-0.1,2-0.3v1.1
		c-0.5,0.2-1.2,0.3-2,0.3C57.5,363.5,56.4,362.7,56.4,359.9z"/>
	<path fill="#B3B3B3" d="M79.2,363.3l-3.9-11.2h1.4l2,6.1l1.3,3.9l1.3-3.9l2-6.1h1.4l-3.9,11.2H79.2z"/>
	<path fill="#B3B3B3" d="M87,361.1c0-2,1.8-2.5,3.3-2.5c0.8,0,1.9,0.1,2.5,0.4v-0.8c0-1.5-0.2-2.6-2.2-2.6c-1.6,0-2.3,0.7-2.3,2
		h-1.2c0-2.5,2.1-3.1,3.6-3.1c2.3,0,3.3,1.2,3.3,3.4v4.2c0,0.3,0.1,0.4,0.5,0.4c0.3,0,0.6,0,1.1-0.1v0.9c-0.3,0.1-0.8,0.3-1.4,0.3
		c-1,0-1.2-0.6-1.2-1.1v-0.2c-0.5,0.6-1.5,1.3-3.1,1.3C88.2,363.5,87,362.8,87,361.1z M92.8,361.5v-1.6c-0.6-0.1-1.6-0.2-2.4-0.2
		c-1.4,0-2.3,0.3-2.3,1.4c0,0.9,0.6,1.4,1.8,1.4C91.2,362.5,92.1,362.1,92.8,361.5z"/>
	<path fill="#B3B3B3" d="M98.4,362.3h2.3v-6.5h-2.3v-1.1h3.2v1.9c0.4-1,1.3-2.1,3-2.1c0.5,0,1,0.1,1.5,0.3v1.2
		c-0.4-0.2-0.9-0.3-1.4-0.3c-1.5,0-2.5,0.9-2.8,1.7v4.9h3.8v1.1h-7.3V362.3z"/>
	<path fill="#B3B3B3" d="M120,361.1c0-2,1.8-2.5,3.3-2.5c0.8,0,1.9,0.1,2.5,0.4v-0.8c0-1.5-0.2-2.6-2.2-2.6c-1.6,0-2.3,0.7-2.3,2
		h-1.2c0-2.5,2.1-3.1,3.6-3.1c2.3,0,3.3,1.2,3.3,3.4v4.2c0,0.3,0.1,0.4,0.5,0.4c0.3,0,0.6,0,1.1-0.1v0.9c-0.3,0.1-0.8,0.3-1.4,0.3
		c-1,0-1.2-0.6-1.2-1.1v-0.2c-0.5,0.6-1.5,1.3-3.1,1.3C121.2,363.5,120,362.8,120,361.1z M125.8,361.5v-1.6
		c-0.6-0.1-1.6-0.2-2.4-0.2c-1.4,0-2.3,0.3-2.3,1.4c0,0.9,0.6,1.4,1.8,1.4C124.2,362.5,125.1,362.1,125.8,361.5z"/>
	<path fill="#B3B3B3" d="M131.7,354.7h0.9v1.1c0.5-0.7,1.4-1.3,2.8-1.3c1.4,0,2.9,0.6,2.9,3.5v5.3h-1.2v-5c0-1.8-0.4-2.8-2-2.8
		c-1.2,0-1.9,0.5-2.3,0.9v6.8h-1.2V354.7z"/>
	<path fill="#B3B3B3" d="M142,359.1c0-3.2,1.7-4.6,3.6-4.6c1.4,0,2.2,0.7,2.6,1.1v-4.9h1.2v12.6h-0.9v-1.1c-0.5,0.6-1.4,1.3-2.8,1.3
		C143.8,363.5,142,362.3,142,359.1z M148.1,361.5v-5c-0.5-0.5-1.3-0.9-2.3-0.9c-1.8,0-2.6,1.4-2.6,3.4s0.8,3.4,2.6,3.4
		C146.8,362.4,147.6,362.1,148.1,361.5z"/>
	<path fill="#B3B3B3" d="M21.7,376.2h1.3v10.1h5.7v1.1h-7V376.2z"/>
	<path fill="#B3B3B3" d="M32,383c0-3.5,2.2-4.5,4.1-4.5c1.8,0,4,1,4,4.5v0.3h-6.9c0.1,2.1,1.1,3.2,3,3.2c1.5,0,2.5-0.7,2.7-2H40
		c-0.3,2.4-2.4,3-4,3C33.9,387.5,32,386.3,32,383z M33.2,382.3h5.6c-0.2-1.9-1.2-2.8-2.8-2.8C34.4,379.5,33.4,380.4,33.2,382.3z"/>
	<path fill="#B3B3B3" d="M45.4,383.9v-4.1h-2.9v-1.1h2.9v-4h1.2v4h4.2v1.1h-4.2v3.9c0,1.9,0.4,2.7,2,2.7c0.7,0,1.4-0.1,2-0.3v1.1
		c-0.5,0.2-1.2,0.3-2,0.3C46.5,387.5,45.4,386.7,45.4,383.9z"/>
</g>
<circle fill="#FFFFFF" stroke="#999999" stroke-width="2" stroke-miterlimit="10" cx="212.3" cy="357.8" r="25.3"/>
<circle fill="#FFFFFF" stroke="#999999" stroke-width="2" stroke-miterlimit="10" cx="237.7" cy="380.6" r="25.3"/>
<g>
	<path fill="#808080" d="M221.4,382.8c-0.4-0.3-0.6-0.8-0.7-1.3h1.4c0,0.1,0,0.2,0.1,0.3c0,0.1,0.1,0.2,0.2,0.2
		c0.1,0.1,0.2,0.1,0.3,0.2c0.1,0,0.3,0.1,0.5,0.1c0.3,0,0.5-0.1,0.7-0.2s0.3-0.4,0.3-0.6c0-0.3-0.1-0.5-0.3-0.6s-0.4-0.2-0.8-0.2
		c-0.2,0-0.4,0-0.6,0.1c-0.2,0.1-0.4,0.2-0.6,0.4l-0.9-0.3l0.3-3.3h4v1.2h-2.8l-0.1,1.1c0.2-0.1,0.4-0.2,0.6-0.3
		c0.2-0.1,0.4-0.1,0.6-0.1c0.3,0,0.6,0,0.8,0.1c0.2,0.1,0.5,0.2,0.6,0.4c0.2,0.2,0.3,0.4,0.4,0.6c0.1,0.2,0.1,0.5,0.1,0.8
		c0,0.4-0.1,0.7-0.2,0.9s-0.3,0.5-0.5,0.6c-0.2,0.2-0.5,0.3-0.7,0.4c-0.3,0.1-0.6,0.1-0.9,0.1C222.4,383.3,221.8,383.1,221.4,382.8z
		"/>
	<path fill="#808080" d="M226.4,381.9V381l3.1-3.7h1.2v3.5h1v1.1h-1v1.3h-1.3v-1.3H226.4z M229.3,379.2l-1.4,1.6h1.4V379.2z"/>
	<path fill="#808080" d="M239.4,378.7v0.6c0-0.1,0.1-0.1,0.1-0.2c0.1-0.1,0.1-0.2,0.2-0.2c0.1-0.1,0.2-0.1,0.3-0.2s0.3-0.1,0.4-0.1
		c0.3,0,0.5,0.1,0.6,0.2s0.2,0.3,0.3,0.4c0,0,0.1-0.1,0.1-0.2c0-0.1,0.1-0.1,0.2-0.2c0.1-0.1,0.2-0.1,0.3-0.2s0.3-0.1,0.4-0.1
		c0.2,0,0.4,0,0.5,0.1s0.2,0.2,0.3,0.3c0.1,0.1,0.1,0.3,0.2,0.5c0,0.2,0,0.4,0,0.6v3.1h-1.2v-2.9c0-0.2,0-0.4-0.1-0.5
		s-0.1-0.2-0.3-0.2c-0.1,0-0.2,0-0.3,0.1s-0.2,0.1-0.2,0.2v3.2h-1.1v-2.9c0-0.2,0-0.4-0.1-0.5c0-0.1-0.1-0.2-0.3-0.2
		c-0.1,0-0.2,0-0.3,0.1c-0.1,0.1-0.2,0.1-0.2,0.2v3.2h-1.2v-4.5H239.4z"/>
	<path fill="#808080" d="M246.4,382.2v-2.5h-1.5v-1h2.9v3.5h1.4v1h-4.2v-1H246.4z M247.9,376.6v1.4h-1.6v-1.4H247.9z"/>
	<path fill="#808080" d="M252.1,378.7v0.6c0.1-0.2,0.3-0.3,0.5-0.5c0.2-0.1,0.5-0.2,0.9-0.2c0.2,0,0.4,0,0.6,0.1
		c0.2,0.1,0.4,0.2,0.5,0.3s0.3,0.3,0.3,0.6c0.1,0.2,0.1,0.5,0.1,0.9v2.8h-1.3v-2.5c0-0.3,0-0.6-0.1-0.7c-0.1-0.1-0.3-0.2-0.6-0.2
		c-0.2,0-0.3,0-0.5,0.1s-0.2,0.1-0.3,0.2v3.1h-1.3v-4.5H252.1z"/>
</g>
<g>
	<path fill="#808080" d="M197.5,361c-1.1-1-1.8-2.3-1.8-4h3.7c0,0.3,0.1,0.6,0.2,0.9c0.1,0.3,0.3,0.5,0.5,0.8
		c0.2,0.2,0.5,0.4,0.9,0.5c0.4,0.1,0.8,0.2,1.4,0.2c0.8,0,1.5-0.2,1.9-0.5s0.7-0.8,0.7-1.4c0-0.6-0.2-1.1-0.7-1.4
		c-0.5-0.3-1.2-0.4-2.1-0.4h-1v-3h1c0.8,0,1.4-0.1,1.8-0.4c0.4-0.3,0.6-0.7,0.6-1.3c0-0.6-0.2-1-0.6-1.4s-0.9-0.5-1.6-0.5
		c-0.8,0-1.4,0.2-1.9,0.6c-0.5,0.4-0.7,1-0.8,1.8H196c0.1-1.7,0.7-3,1.8-4c1.2-1,2.7-1.5,4.7-1.5c0.9,0,1.8,0.1,2.5,0.3
		c0.7,0.2,1.3,0.5,1.8,1c0.5,0.4,0.9,0.9,1.1,1.5c0.3,0.6,0.4,1.2,0.4,1.9c0,0.7-0.2,1.3-0.5,1.9c-0.4,0.6-0.9,1.1-1.7,1.5
		c0.8,0.3,1.5,0.8,1.9,1.4c0.5,0.6,0.7,1.4,0.7,2.2c0,0.8-0.2,1.4-0.5,2s-0.8,1-1.4,1.4c-0.6,0.4-1.2,0.7-2,0.9s-1.5,0.3-2.4,0.3
		C200.3,362.4,198.6,361.9,197.5,361z"/>
	<path fill="#B3B3B3" d="M213.9,355l-5,8.4h-1.2l5-8.4H213.9z"/>
	<path fill="#B3B3B3" d="M214.6,361.6c-0.4-0.3-0.6-0.8-0.7-1.3h1.4c0,0.1,0,0.2,0.1,0.3c0,0.1,0.1,0.2,0.2,0.2
		c0.1,0.1,0.2,0.1,0.3,0.2c0.1,0,0.3,0.1,0.5,0.1c0.3,0,0.5-0.1,0.7-0.2s0.3-0.4,0.3-0.6c0-0.3-0.1-0.5-0.3-0.6s-0.4-0.2-0.8-0.2
		c-0.2,0-0.4,0-0.6,0.1c-0.2,0.1-0.4,0.2-0.6,0.4l-0.9-0.3l0.3-3.3h4v1.2h-2.8l-0.1,1.1c0.2-0.1,0.4-0.2,0.6-0.3
		c0.2-0.1,0.4-0.1,0.6-0.1c0.3,0,0.6,0,0.8,0.1c0.2,0.1,0.5,0.2,0.6,0.4c0.2,0.2,0.3,0.4,0.4,0.6c0.1,0.2,0.1,0.5,0.1,0.8
		c0,0.4-0.1,0.7-0.2,0.9s-0.3,0.5-0.5,0.6c-0.2,0.2-0.5,0.3-0.7,0.4s-0.6,0.1-0.9,0.1C215.6,362.1,215,362,214.6,361.6z"/>
</g>
<rect x="1.5" y="62.5" fill="#666666" width="276" height="38.8"/>
<circle fill="#FFFFFF" cx="37.1" cy="82.1" r="12.6"/>
<g>
	<path fill="#666666" d="M34.3,86.3c-0.7-0.6-1.1-1.4-1.2-2.5h2.3c0,0.2,0.1,0.4,0.1,0.6s0.2,0.3,0.3,0.5c0.1,0.1,0.3,0.3,0.6,0.3
		c0.2,0.1,0.5,0.1,0.9,0.1c0.5,0,0.9-0.1,1.2-0.3s0.4-0.5,0.4-0.9c0-0.4-0.2-0.7-0.5-0.9c-0.3-0.2-0.7-0.3-1.3-0.3h-0.6v-1.9h0.6
		c0.5,0,0.9-0.1,1.2-0.3c0.3-0.2,0.4-0.4,0.4-0.8c0-0.4-0.1-0.6-0.4-0.9c-0.3-0.2-0.6-0.3-1-0.3c-0.5,0-0.9,0.1-1.2,0.4
		c-0.3,0.3-0.5,0.7-0.5,1.2h-2.3c0-1.1,0.4-1.9,1.2-2.5c0.7-0.6,1.7-0.9,3-0.9c0.6,0,1.1,0.1,1.6,0.2c0.5,0.1,0.8,0.3,1.2,0.6
		c0.3,0.3,0.6,0.6,0.7,0.9s0.2,0.8,0.2,1.2c0,0.4-0.1,0.8-0.3,1.2s-0.6,0.7-1.1,0.9c0.5,0.2,0.9,0.5,1.2,0.9
		c0.3,0.4,0.4,0.9,0.4,1.4c0,0.5-0.1,0.9-0.3,1.3c-0.2,0.4-0.5,0.7-0.9,0.9s-0.8,0.4-1.3,0.5c-0.5,0.1-1,0.2-1.5,0.2
		C36.1,87.2,35,86.9,34.3,86.3z"/>
</g>
<circle fill="#FFFFFF" cx="189" cy="82" r="5.5"/>
<g>
	<path fill="#666666" d="M187.7,83.8c-0.3-0.3-0.5-0.6-0.5-1.1h1c0,0.1,0,0.2,0.1,0.2c0,0.1,0.1,0.1,0.1,0.2
		c0.1,0.1,0.1,0.1,0.2,0.1c0.1,0,0.2,0.1,0.4,0.1c0.2,0,0.4,0,0.5-0.1s0.2-0.2,0.2-0.4c0-0.2-0.1-0.3-0.2-0.4
		c-0.1-0.1-0.3-0.1-0.6-0.1h-0.3v-0.8h0.3c0.2,0,0.4,0,0.5-0.1s0.2-0.2,0.2-0.3c0-0.2-0.1-0.3-0.2-0.4c-0.1-0.1-0.3-0.1-0.4-0.1
		c-0.2,0-0.4,0.1-0.5,0.2c-0.1,0.1-0.2,0.3-0.2,0.5h-1c0-0.5,0.2-0.8,0.5-1.1c0.3-0.3,0.7-0.4,1.3-0.4c0.3,0,0.5,0,0.7,0.1
		c0.2,0.1,0.4,0.1,0.5,0.3c0.1,0.1,0.2,0.2,0.3,0.4c0.1,0.2,0.1,0.3,0.1,0.5c0,0.2,0,0.4-0.1,0.5c-0.1,0.2-0.3,0.3-0.5,0.4
		c0.2,0.1,0.4,0.2,0.5,0.4c0.1,0.2,0.2,0.4,0.2,0.6c0,0.2,0,0.4-0.1,0.5s-0.2,0.3-0.4,0.4c-0.2,0.1-0.3,0.2-0.5,0.2
		c-0.2,0.1-0.4,0.1-0.6,0.1C188.5,84.2,188,84,187.7,83.8z"/>
</g>
<g>
	<path fill="#FFFFFF" d="M73,58.5c-0.4,0-0.8-0.2-1.1-0.4c-0.3-0.3-0.4-0.7-0.4-1.1c0-0.4,0.2-0.8,0.4-1.1c0.6-0.6,1.6-0.6,2.1,0
		c0.3,0.3,0.4,0.7,0.4,1.1c0,0.4-0.2,0.8-0.4,1.1C73.8,58.3,73.4,58.5,73,58.5z"/>
	<path fill="#FFFFFF" d="M71.5,93c0-0.8,0.7-1.5,1.5-1.5l0,0c0.8,0,1.5,0.7,1.5,1.5l0,0c0,0.8-0.7,1.5-1.5,1.5l0,0
		C72.2,94.5,71.5,93.8,71.5,93z M71.5,81c0-0.8,0.7-1.5,1.5-1.5l0,0c0.8,0,1.5,0.7,1.5,1.5l0,0c0,0.8-0.7,1.5-1.5,1.5l0,0
		C72.2,82.5,71.5,81.8,71.5,81z M71.5,69c0-0.8,0.7-1.5,1.5-1.5l0,0c0.8,0,1.5,0.7,1.5,1.5l0,0c0,0.8-0.7,1.5-1.5,1.5l0,0
		C72.2,70.5,71.5,69.8,71.5,69z"/>
	<path fill="#FFFFFF" d="M73,108.5c-0.4,0-0.8-0.2-1.1-0.4c-0.3-0.3-0.4-0.7-0.4-1.1c0-0.4,0.2-0.8,0.4-1.1c0.6-0.6,1.6-0.6,2.1,0
		c0.3,0.3,0.4,0.7,0.4,1.1c0,0.4-0.2,0.8-0.4,1.1C73.8,108.3,73.4,108.5,73,108.5z"/>
</g>
<g>
	<path fill="#FFFFFF" d="M141,58.5c-0.4,0-0.8-0.2-1.1-0.4c-0.3-0.3-0.4-0.7-0.4-1.1c0-0.4,0.2-0.8,0.4-1.1c0.6-0.6,1.6-0.6,2.1,0
		c0.3,0.3,0.4,0.7,0.4,1.1c0,0.4-0.2,0.8-0.4,1.1C141.8,58.3,141.4,58.5,141,58.5z"/>
	<path fill="#FFFFFF" d="M139.5,93c0-0.8,0.7-1.5,1.5-1.5l0,0c0.8,0,1.5,0.7,1.5,1.5l0,0c0,0.8-0.7,1.5-1.5,1.5l0,0
		C140.2,94.5,139.5,93.8,139.5,93z M139.5,81c0-0.8,0.7-1.5,1.5-1.5l0,0c0.8,0,1.5,0.7,1.5,1.5l0,0c0,0.8-0.7,1.5-1.5,1.5l0,0
		C140.2,82.5,139.5,81.8,139.5,81z M139.5,69c0-0.8,0.7-1.5,1.5-1.5l0,0c0.8,0,1.5,0.7,1.5,1.5l0,0c0,0.8-0.7,1.5-1.5,1.5l0,0
		C140.2,70.5,139.5,69.8,139.5,69z"/>
	<path fill="#FFFFFF" d="M141,108.5c-0.4,0-0.8-0.2-1.1-0.4c-0.3-0.3-0.4-0.7-0.4-1.1c0-0.4,0.2-0.8,0.4-1.1c0.6-0.6,1.6-0.6,2.1,0
		c0.3,0.3,0.4,0.7,0.4,1.1c0,0.4-0.2,0.8-0.4,1.1C141.8,108.3,141.4,108.5,141,108.5z"/>
</g>
<g>
	<path fill="#FFFFFF" d="M212,58.5c-0.4,0-0.8-0.2-1.1-0.4c-0.3-0.3-0.4-0.7-0.4-1.1c0-0.4,0.2-0.8,0.4-1.1c0.6-0.6,1.6-0.6,2.1,0
		c0.3,0.3,0.4,0.7,0.4,1.1c0,0.4-0.2,0.8-0.4,1.1C212.8,58.3,212.4,58.5,212,58.5z"/>
	<path fill="#FFFFFF" d="M210.5,93c0-0.8,0.7-1.5,1.5-1.5l0,0c0.8,0,1.5,0.7,1.5,1.5l0,0c0,0.8-0.7,1.5-1.5,1.5l0,0
		C211.2,94.5,210.5,93.8,210.5,93z M210.5,81c0-0.8,0.7-1.5,1.5-1.5l0,0c0.8,0,1.5,0.7,1.5,1.5l0,0c0,0.8-0.7,1.5-1.5,1.5l0,0
		C211.2,82.5,210.5,81.8,210.5,81z M210.5,69c0-0.8,0.7-1.5,1.5-1.5l0,0c0.8,0,1.5,0.7,1.5,1.5l0,0c0,0.8-0.7,1.5-1.5,1.5l0,0
		C211.2,70.5,210.5,69.8,210.5,69z"/>
	<path fill="#FFFFFF" d="M212,108.5c-0.4,0-0.8-0.2-1.1-0.4c-0.3-0.3-0.4-0.7-0.4-1.1c0-0.4,0.2-0.8,0.4-1.1c0.6-0.6,1.6-0.6,2.1,0
		c0.3,0.3,0.4,0.7,0.4,1.1c0,0.4-0.2,0.8-0.4,1.1C212.8,108.3,212.4,108.5,212,108.5z"/>
</g>
<g>
	<path fill="#FFFFFF" d="M92.8,85.3c-0.4-0.1-0.8-0.3-1.1-0.6c-0.3-0.3-0.6-0.6-0.7-1s-0.3-0.9-0.3-1.5c0-0.6,0.1-1.1,0.3-1.6
		s0.5-0.8,0.8-1c0.3-0.3,0.7-0.4,1.1-0.5s0.8-0.2,1.3-0.2c0.4,0,0.8,0.1,1.2,0.2s0.8,0.3,1.1,0.6c0.3,0.3,0.6,0.6,0.7,1
		s0.3,0.9,0.3,1.5v0.3h-4.8c0,0.5,0.1,0.8,0.4,1.1c0.2,0.3,0.6,0.4,1.2,0.4c0.4,0,0.6-0.1,0.9-0.2s0.4-0.3,0.4-0.5h1.9
		c-0.1,0.4-0.2,0.7-0.4,1s-0.5,0.5-0.7,0.7c-0.3,0.2-0.6,0.3-1,0.4c-0.4,0.1-0.7,0.1-1.1,0.1C93.6,85.5,93.2,85.4,92.8,85.3z
		 M94.9,80.6c-0.3-0.1-0.6-0.2-0.9-0.2c-0.3,0-0.6,0.1-0.9,0.2c-0.3,0.1-0.5,0.4-0.6,0.8h2.9C95.4,81,95.2,80.7,94.9,80.6z"/>
	<path fill="#FFFFFF" d="M100.5,85.4c-0.3-0.1-0.5-0.2-0.7-0.3s-0.4-0.3-0.5-0.6c-0.1-0.2-0.2-0.5-0.2-0.8c0-0.4,0.1-0.7,0.2-0.9
		c0.1-0.2,0.3-0.4,0.6-0.6c0.3-0.1,0.5-0.2,0.9-0.3c0.3-0.1,0.7-0.1,1-0.1c0.4,0,0.7,0,1,0.1c0.3,0,0.5,0.1,0.7,0.1v-0.5
		c0-0.2,0-0.3,0-0.5c0-0.1-0.1-0.3-0.2-0.4s-0.2-0.2-0.3-0.2s-0.4-0.1-0.6-0.1c-0.4,0-0.6,0.1-0.9,0.2s-0.3,0.4-0.3,0.7h-1.8
		c0-0.4,0.1-0.8,0.2-1.1c0.2-0.3,0.4-0.5,0.6-0.7c0.3-0.2,0.6-0.3,1-0.4s0.8-0.1,1.2-0.1c0.4,0,0.8,0,1.1,0.1s0.7,0.2,0.9,0.4
		c0.3,0.2,0.5,0.4,0.6,0.8c0.2,0.3,0.2,0.7,0.2,1.2v2.3c0,0.2,0.1,0.3,0.3,0.3c0.1,0,0.2,0,0.3,0c0.1,0,0.2,0,0.2-0.1v1.2
		c-0.1,0.1-0.3,0.1-0.6,0.2s-0.5,0.1-0.7,0.1c-0.4,0-0.7-0.1-0.9-0.3c-0.2-0.2-0.2-0.4-0.2-0.6v-0.1c-0.1,0.1-0.2,0.2-0.3,0.3
		c-0.1,0.1-0.3,0.2-0.5,0.3s-0.4,0.2-0.7,0.3c-0.3,0.1-0.6,0.1-0.9,0.1C101,85.5,100.7,85.4,100.5,85.4z M102.8,84
		c0.3-0.1,0.5-0.2,0.6-0.3v-0.6c-0.1,0-0.3,0-0.5-0.1s-0.5,0-0.7,0c-0.4,0-0.7,0-0.9,0.1c-0.2,0.1-0.4,0.2-0.4,0.5
		c0,0.2,0.1,0.4,0.2,0.4s0.4,0.1,0.7,0.1C102.2,84.2,102.6,84.1,102.8,84z"/>
	<path fill="#FFFFFF" d="M109.5,85.4c-0.4-0.1-0.7-0.2-1-0.3c-0.3-0.2-0.5-0.4-0.7-0.6s-0.3-0.6-0.3-1h1.9c0,0.3,0.2,0.5,0.5,0.6
		s0.6,0.2,1.1,0.2c0.4,0,0.7,0,1-0.1c0.3-0.1,0.4-0.2,0.4-0.5c0-0.1-0.1-0.2-0.2-0.3c-0.1-0.1-0.3-0.1-0.4-0.2s-0.4-0.1-0.7-0.1
		s-0.5-0.1-0.9-0.1c-0.3,0-0.6-0.1-0.9-0.2c-0.3-0.1-0.6-0.2-0.8-0.3s-0.4-0.3-0.6-0.5s-0.2-0.5-0.2-0.9c0-0.3,0.1-0.6,0.2-0.9
		s0.4-0.5,0.7-0.6c0.3-0.2,0.6-0.3,1-0.4s0.8-0.1,1.3-0.1c0.4,0,0.8,0,1.2,0.1s0.7,0.2,1,0.3c0.3,0.2,0.5,0.4,0.7,0.6s0.3,0.6,0.3,1
		h-1.9c0-0.3-0.2-0.5-0.5-0.5c-0.3-0.1-0.5-0.1-0.9-0.1c-0.3,0-0.6,0-0.8,0.1s-0.3,0.2-0.3,0.4c0,0.2,0.2,0.4,0.5,0.5
		c0.3,0.1,0.9,0.2,1.6,0.3c0.3,0,0.6,0.1,0.9,0.2c0.3,0.1,0.6,0.2,0.8,0.3s0.4,0.3,0.6,0.6s0.2,0.5,0.2,0.9c0,0.4-0.1,0.7-0.3,1
		s-0.4,0.5-0.7,0.6c-0.3,0.2-0.7,0.3-1.1,0.3s-0.9,0.1-1.3,0.1C110.3,85.5,109.9,85.4,109.5,85.4z"/>
	<path fill="#FFFFFF" d="M117.4,86.2c0.4-0.2,0.6-0.5,0.9-1l-2.8-6.1h2.1l1.1,2.6l0.6,1.8l0.6-1.8l1.1-2.6h2.1l-2.6,5.7
		c-0.3,0.6-0.5,1.1-0.8,1.5c-0.3,0.4-0.6,0.7-0.9,1c-0.3,0.3-0.8,0.4-1.2,0.6c-0.5,0.1-1,0.2-1.7,0.2v-1.5
		C116.5,86.5,117,86.4,117.4,86.2z"/>
</g>
<path fill="#FFFFFF" d="M170.9,85.9l5.9-3.9l-5.9-3.9V85.9z"/>
<path fill="#FFFFFF" d="M173,69.5c-6.9,0-12.6,5.6-12.6,12.6c0,6.9,5.6,12.6,12.6,12.6s12.6-5.6,12.6-12.6
	C185.6,75.1,179.9,69.5,173,69.5z M178,82.5l-7.3,4.8c-0.1,0.1-0.2,0.1-0.3,0.1c-0.1,0-0.2,0-0.2-0.1c-0.2-0.1-0.3-0.3-0.3-0.5v-9.7
	c0-0.2,0.1-0.4,0.3-0.5c0.2-0.1,0.4-0.1,0.5,0l7.3,4.8c0.1,0.1,0.2,0.3,0.2,0.4C178.2,82.2,178.1,82.4,178,82.5z"/>
</svg>
